<?xml version="1.0" encoding="utf-8"?>
<!-- Generator: Adobe Illustrator 17.0.0, SVG Export Plug-In . SVG Version: 6.00 Build 0)  -->
<!DOCTYPE svg PUBLIC "-//W3C//DTD SVG 1.1//EN" "http://www.w3.org/Graphics/SVG/1.1/DTD/svg11.dtd">
<svg version="1.1" id="Layer_1" xmlns="http://www.w3.org/2000/svg" xmlns:xlink="http://www.w3.org/1999/xlink" x="0px" y="0px"
	 width="150px" height="60px" viewBox="-12.669 303.02 150 60" enable-background="new -12.669 303.02 150 60" xml:space="preserve"
	>
<path fill="#259148" d="M-8.855,321.521c-4.207-4.232-4.207-11.099,0-15.328c4.207-4.232,11.041-4.232,15.249,0l11.439,11.494
	v15.328l-15.249,0.002L-8.855,321.521z"/>
<path fill="#FDC727" d="M-1.231,359.845l-11.439-11.497l0.002-15.325l15.247-0.002l11.438,11.497c4.207,4.229,4.207,11.099,0,15.328
	C9.811,364.078,2.976,364.078-1.231,359.845L-1.231,359.845z"/>
<g>
	<path fill="#0F0F0E" d="M28.853,339.761c-1.217,0-2.343-0.224-3.379-0.672c-1.037-0.448-1.927-1.072-2.672-1.873
		c-0.745-0.801-1.289-1.735-1.632-2.803l2.904-1.266c0.463,1.102,1.131,1.968,2.004,2.596c0.874,0.629,1.859,0.943,2.955,0.943
		c0.617,0,1.152-0.099,1.606-0.297c0.454-0.198,0.805-0.469,1.054-0.814c0.248-0.345,0.373-0.758,0.373-1.24
		c0-0.568-0.167-1.037-0.501-1.407c-0.334-0.37-0.835-0.659-1.503-0.865l-3.675-1.188c-1.49-0.465-2.613-1.162-3.366-2.092
		c-0.754-0.93-1.131-2.023-1.131-3.281c0-1.102,0.27-2.075,0.809-2.919c0.54-0.844,1.293-1.502,2.261-1.976
		c0.968-0.473,2.077-0.71,3.328-0.71c1.148,0,2.201,0.203,3.161,0.607c0.959,0.405,1.786,0.965,2.48,1.679
		c0.694,0.715,1.212,1.554,1.555,2.518l-2.878,1.292c-0.377-0.964-0.942-1.709-1.696-2.234c-0.754-0.525-1.628-0.788-2.621-0.788
		c-0.583,0-1.097,0.099-1.542,0.297c-0.446,0.198-0.793,0.474-1.041,0.827c-0.249,0.353-0.373,0.771-0.373,1.253
		c0,0.534,0.171,1.003,0.514,1.408c0.343,0.405,0.865,0.719,1.568,0.943l3.521,1.111c1.525,0.5,2.668,1.188,3.431,2.067
		c0.762,0.878,1.143,1.963,1.143,3.254c0,1.102-0.283,2.076-0.848,2.919c-0.565,0.844-1.345,1.507-2.339,1.989
		C31.329,339.519,30.172,339.761,28.853,339.761z"/>
	<path fill="#0F0F0E" d="M38.644,339.451v-19.244h3.495v19.244H38.644z"/>
	<path fill="#0F0F0E" d="M52.649,339.761c-1.217,0-2.343-0.224-3.379-0.672c-1.037-0.448-1.927-1.072-2.672-1.873
		c-0.745-0.801-1.289-1.735-1.632-2.803l2.904-1.266c0.463,1.102,1.131,1.968,2.004,2.596c0.874,0.629,1.859,0.943,2.955,0.943
		c0.617,0,1.152-0.099,1.606-0.297c0.454-0.198,0.805-0.469,1.054-0.814c0.248-0.345,0.373-0.758,0.373-1.24
		c0-0.568-0.167-1.037-0.501-1.407c-0.334-0.37-0.835-0.659-1.503-0.865l-3.675-1.188c-1.49-0.465-2.613-1.162-3.366-2.092
		c-0.754-0.93-1.131-2.023-1.131-3.281c0-1.102,0.27-2.075,0.809-2.919c0.54-0.844,1.293-1.502,2.261-1.976
		c0.968-0.473,2.077-0.71,3.328-0.71c1.148,0,2.201,0.203,3.161,0.607c0.959,0.405,1.786,0.965,2.48,1.679
		c0.694,0.715,1.212,1.554,1.555,2.518l-2.878,1.292c-0.377-0.964-0.942-1.709-1.696-2.234c-0.754-0.525-1.628-0.788-2.621-0.788
		c-0.583,0-1.097,0.099-1.542,0.297c-0.446,0.198-0.793,0.474-1.041,0.827c-0.249,0.353-0.373,0.771-0.373,1.253
		c0,0.534,0.171,1.003,0.514,1.408c0.343,0.405,0.865,0.719,1.568,0.943l3.521,1.111c1.525,0.5,2.668,1.188,3.431,2.067
		c0.762,0.878,1.143,1.963,1.143,3.254c0,1.102-0.283,2.076-0.848,2.919c-0.565,0.844-1.345,1.507-2.339,1.989
		C55.125,339.519,53.968,339.761,52.649,339.761z"/>
	<path fill="#0F0F0E" d="M62.44,339.451v-19.244h12.772v3.1h-9.277v5.321h8.121v3.1h-8.121v7.723H62.44z"/>
	<path fill="#0F0F0E" d="M86.673,339.761c-1.405,0-2.716-0.25-3.932-0.749s-2.279-1.197-3.187-2.092
		c-0.908-0.895-1.615-1.95-2.12-3.164c-0.506-1.214-0.758-2.527-0.758-3.939c0-1.429,0.248-2.747,0.745-3.952
		c0.497-1.205,1.199-2.256,2.107-3.151c0.908-0.895,1.97-1.588,3.187-2.079c1.216-0.491,2.535-0.736,3.958-0.736
		c1.422,0,2.741,0.25,3.958,0.749c1.216,0.5,2.278,1.193,3.187,2.079c0.908,0.887,1.614,1.933,2.12,3.138
		c0.505,1.206,0.758,2.523,0.758,3.952c0,1.412-0.257,2.725-0.771,3.939c-0.514,1.214-1.225,2.269-2.133,3.164
		c-0.908,0.896-1.966,1.593-3.173,2.092C89.411,339.511,88.096,339.761,86.673,339.761z M86.673,336.558
		c0.942,0,1.807-0.168,2.596-0.504c0.787-0.336,1.478-0.805,2.068-1.408c0.591-0.603,1.045-1.317,1.362-2.144
		c0.316-0.827,0.475-1.722,0.475-2.686c0-0.964-0.159-1.855-0.475-2.674c-0.317-0.818-0.771-1.533-1.362-2.144
		c-0.591-0.611-1.281-1.08-2.068-1.408c-0.789-0.327-1.654-0.491-2.596-0.491c-0.925,0-1.782,0.164-2.57,0.491
		c-0.789,0.327-1.478,0.797-2.069,1.408c-0.591,0.611-1.05,1.326-1.375,2.144c-0.326,0.818-0.488,1.709-0.488,2.674
		c0,0.965,0.162,1.86,0.488,2.686c0.325,0.827,0.783,1.541,1.375,2.144c0.591,0.603,1.28,1.072,2.069,1.408
		C84.891,336.39,85.748,336.558,86.673,336.558z"/>
	<path fill="#0F0F0E" d="M98.314,339.451v-2.764l9.277-13.38h-8.737v-3.1h13.183v2.764l-9.252,13.38h9.508v3.1H98.314z"/>
	<path fill="#0F0F0E" d="M114.479,339.451v-19.244h3.495v19.244H114.479z"/>
	<path fill="#0F0F0E" d="M128.484,339.761c-1.217,0-2.343-0.224-3.379-0.672c-1.037-0.448-1.927-1.072-2.673-1.873
		c-0.745-0.801-1.289-1.735-1.632-2.803l2.904-1.266c0.462,1.102,1.13,1.968,2.004,2.596c0.874,0.629,1.859,0.943,2.955,0.943
		c0.617,0,1.152-0.099,1.606-0.297c0.454-0.198,0.805-0.469,1.054-0.814c0.248-0.345,0.373-0.758,0.373-1.24
		c0-0.568-0.167-1.037-0.501-1.407c-0.334-0.37-0.835-0.659-1.503-0.865l-3.675-1.188c-1.49-0.465-2.613-1.162-3.366-2.092
		c-0.754-0.93-1.131-2.023-1.131-3.281c0-1.102,0.27-2.075,0.809-2.919c0.539-0.844,1.293-1.502,2.261-1.976
		c0.968-0.473,2.077-0.71,3.328-0.71c1.148,0,2.201,0.203,3.161,0.607c0.959,0.405,1.786,0.965,2.48,1.679
		c0.694,0.715,1.212,1.554,1.555,2.518l-2.878,1.292c-0.377-0.964-0.943-1.709-1.696-2.234c-0.754-0.525-1.628-0.788-2.621-0.788
		c-0.583,0-1.097,0.099-1.542,0.297c-0.446,0.198-0.793,0.474-1.041,0.827c-0.249,0.353-0.373,0.771-0.373,1.253
		c0,0.534,0.171,1.003,0.514,1.408c0.342,0.405,0.865,0.719,1.567,0.943l3.521,1.111c1.525,0.5,2.668,1.188,3.431,2.067
		c0.762,0.878,1.144,1.963,1.144,3.254c0,1.102-0.283,2.076-0.848,2.919c-0.565,0.844-1.345,1.507-2.339,1.989
		C130.96,339.519,129.803,339.761,128.484,339.761z"/>
</g>
<g>
	<path fill="#565554" d="M23.426,351.547v-5.868h2.46c0.386,0,0.717,0.067,0.991,0.201c0.274,0.134,0.486,0.323,0.635,0.567
		c0.149,0.244,0.223,0.54,0.223,0.886c0,0.268-0.072,0.519-0.215,0.752c-0.144,0.234-0.372,0.427-0.686,0.579v-0.496
		c0.287,0.11,0.514,0.247,0.682,0.41c0.167,0.163,0.285,0.344,0.353,0.544c0.068,0.199,0.102,0.41,0.102,0.63
		c0,0.562-0.184,1.001-0.552,1.319c-0.368,0.318-0.879,0.476-1.532,0.476H23.426z M24.492,347.955h1.45
		c0.219,0,0.394-0.064,0.525-0.193c0.131-0.129,0.196-0.295,0.196-0.5c0-0.205-0.065-0.368-0.196-0.488
		c-0.131-0.121-0.306-0.181-0.525-0.181h-1.45V347.955z M24.492,350.601h1.504c0.277,0,0.497-0.077,0.662-0.232
		c0.164-0.155,0.247-0.361,0.247-0.618c0-0.257-0.082-0.465-0.247-0.622c-0.165-0.158-0.385-0.236-0.662-0.236h-1.504V350.601z"/>
	<path fill="#565554" d="M28.362,351.547l2.014-5.868h1.379l2.014,5.868h-1.16l-0.415-1.26h-2.257l-0.423,1.26H28.362z
		 M30.243,349.341h1.645l-0.972-2.922h0.298L30.243,349.341z"/>
	<path fill="#565554" d="M33.965,351.547v-0.843l2.829-4.08h-2.664v-0.945h4.02v0.843l-2.821,4.08h2.899v0.945H33.965z"/>
	<path fill="#565554" d="M38.893,351.547v-5.868h0.831l3.213,4.348l-0.431,0.087v-4.434h1.066v5.868h-0.838l-3.166-4.379
		l0.392-0.087v4.466H38.893z"/>
	<path fill="#565554" d="M44.221,351.547l2.014-5.868h1.379l2.014,5.868h-1.16l-0.415-1.26h-2.257l-0.423,1.26H44.221z
		 M46.102,349.341h1.645l-0.972-2.922h0.298L46.102,349.341z"/>
	<path fill="#565554" d="M52.284,351.641c-0.371,0-0.714-0.068-1.03-0.205c-0.316-0.136-0.588-0.327-0.815-0.571
		c-0.227-0.244-0.393-0.529-0.498-0.854l0.885-0.386c0.141,0.336,0.345,0.6,0.611,0.792c0.266,0.191,0.567,0.287,0.901,0.287
		c0.188,0,0.351-0.03,0.49-0.091c0.138-0.06,0.246-0.143,0.321-0.248c0.076-0.105,0.113-0.231,0.113-0.378
		c0-0.173-0.051-0.316-0.153-0.429c-0.102-0.113-0.255-0.201-0.458-0.264l-1.12-0.362c-0.454-0.142-0.797-0.354-1.026-0.638
		c-0.23-0.283-0.345-0.617-0.345-1c0-0.336,0.082-0.633,0.247-0.89c0.165-0.257,0.394-0.458,0.69-0.602
		c0.295-0.145,0.633-0.217,1.015-0.217c0.35,0,0.671,0.061,0.964,0.185c0.292,0.124,0.545,0.294,0.756,0.512
		c0.211,0.218,0.369,0.474,0.474,0.768l-0.878,0.394c-0.115-0.294-0.287-0.521-0.517-0.681c-0.23-0.16-0.496-0.24-0.799-0.24
		c-0.178,0-0.334,0.03-0.47,0.091c-0.136,0.06-0.242,0.144-0.317,0.252c-0.076,0.107-0.113,0.235-0.113,0.382
		c0,0.163,0.052,0.306,0.157,0.429c0.104,0.124,0.264,0.22,0.478,0.288l1.073,0.339c0.465,0.152,0.814,0.362,1.046,0.63
		c0.232,0.268,0.349,0.599,0.349,0.993c0,0.336-0.086,0.633-0.259,0.89c-0.173,0.257-0.41,0.459-0.713,0.606
		C53.039,351.568,52.686,351.641,52.284,351.641z"/>
	<path fill="#565554" d="M56.664,351.547v-5.868h1.066v3.056l-0.29-0.102l2.484-2.954h1.34l-2.327,2.773l0.063-0.756l2.335,3.851
		H60.08l-1.567-2.583l-0.784,0.937v1.646H56.664z"/>
	<path fill="#565554" d="M61.506,351.547l2.014-5.868h1.379l2.014,5.868h-1.16l-0.415-1.26h-2.257l-0.423,1.26H61.506z
		 M63.387,349.341h1.645l-0.972-2.922h0.298L63.387,349.341z"/>
	<path fill="#565554" d="M67.563,351.547v-5.868h2.46c0.386,0,0.717,0.067,0.991,0.201c0.274,0.134,0.486,0.323,0.635,0.567
		c0.149,0.244,0.223,0.54,0.223,0.886c0,0.268-0.072,0.519-0.215,0.752c-0.144,0.234-0.372,0.427-0.686,0.579v-0.496
		c0.287,0.11,0.514,0.247,0.682,0.41c0.167,0.163,0.285,0.344,0.353,0.544c0.068,0.199,0.102,0.41,0.102,0.63
		c0,0.562-0.184,1.001-0.552,1.319c-0.368,0.318-0.879,0.476-1.532,0.476H67.563z M68.629,347.955h1.45
		c0.219,0,0.394-0.064,0.525-0.193c0.131-0.129,0.196-0.295,0.196-0.5c0-0.205-0.065-0.368-0.196-0.488
		c-0.131-0.121-0.306-0.181-0.525-0.181h-1.45V347.955z M68.629,350.601h1.504c0.277,0,0.497-0.077,0.662-0.232
		c0.164-0.155,0.247-0.361,0.247-0.618c0-0.257-0.082-0.465-0.247-0.622c-0.165-0.158-0.385-0.236-0.662-0.236h-1.504V350.601z"/>
	<path fill="#565554" d="M75.226,351.641c-0.449,0-0.847-0.095-1.195-0.284c-0.348-0.189-0.621-0.449-0.819-0.78
		c-0.199-0.331-0.298-0.706-0.298-1.126v-3.773h1.066v3.718c0,0.241,0.053,0.459,0.161,0.654c0.107,0.194,0.255,0.345,0.443,0.453
		c0.188,0.107,0.402,0.161,0.642,0.161c0.246,0,0.461-0.054,0.646-0.161c0.185-0.108,0.332-0.259,0.439-0.453
		c0.107-0.194,0.161-0.412,0.161-0.654v-3.718h1.066v3.773c0,0.42-0.099,0.795-0.298,1.126c-0.199,0.331-0.472,0.591-0.819,0.78
		C76.074,351.547,75.676,351.641,75.226,351.641z"/>
	<path fill="#565554" d="M78.603,351.547v-5.868h2.178c0.397,0,0.748,0.072,1.054,0.217c0.306,0.144,0.545,0.354,0.717,0.63
		c0.172,0.276,0.259,0.611,0.259,1.004c0,0.388-0.088,0.72-0.263,0.996c-0.175,0.276-0.414,0.487-0.717,0.634
		c-0.303,0.147-0.653,0.221-1.05,0.221h-1.113v2.166H78.603z M79.669,348.436h1.128c0.193,0,0.36-0.038,0.501-0.114
		c0.141-0.076,0.251-0.182,0.329-0.319c0.078-0.137,0.118-0.294,0.118-0.472c0-0.184-0.039-0.343-0.118-0.477
		c-0.078-0.134-0.188-0.239-0.329-0.315c-0.141-0.076-0.308-0.114-0.501-0.114h-1.128V348.436z"/>
	<path fill="#565554" d="M82.733,351.547l2.014-5.868h1.379l2.014,5.868h-1.16l-0.415-1.26h-2.257l-0.423,1.26H82.733z
		 M84.613,349.341h1.645l-0.972-2.922h0.298L84.613,349.341z"/>
	<path fill="#565554" d="M89.432,351.547v-4.923H87.92v-0.945h4.075v0.945h-1.489v4.923H89.432z"/>
	<path fill="#565554" d="M92.645,351.547v-5.868h3.879v0.945H93.71v1.504h2.656v0.945H93.71v1.528h2.813v0.945H92.645z"/>
	<path fill="#565554" d="M97.307,351.547v-5.868h0.831l3.213,4.348l-0.431,0.087v-4.434h1.066v5.868h-0.838l-3.166-4.379
		l0.392-0.087v4.466H97.307z"/>
	<path fill="#565554" d="M107.25,351.641c-0.418,0-0.803-0.076-1.156-0.228c-0.353-0.152-0.661-0.365-0.925-0.638
		c-0.264-0.273-0.469-0.593-0.615-0.961c-0.146-0.367-0.219-0.769-0.219-1.205c0-0.436,0.072-0.839,0.215-1.209
		c0.144-0.37,0.347-0.691,0.611-0.961s0.573-0.48,0.929-0.63c0.355-0.149,0.742-0.224,1.16-0.224c0.418,0,0.793,0.071,1.124,0.213
		c0.332,0.142,0.612,0.33,0.842,0.563c0.23,0.234,0.394,0.49,0.494,0.768l-0.956,0.449c-0.11-0.294-0.295-0.537-0.557-0.729
		c-0.261-0.192-0.577-0.287-0.948-0.287c-0.366,0-0.688,0.087-0.968,0.26c-0.28,0.173-0.496,0.412-0.65,0.716
		c-0.154,0.305-0.231,0.662-0.231,1.071c0,0.41,0.077,0.768,0.231,1.075c0.154,0.307,0.371,0.547,0.65,0.721
		c0.279,0.173,0.602,0.26,0.968,0.26c0.371,0,0.687-0.096,0.948-0.288c0.261-0.191,0.447-0.434,0.557-0.728l0.956,0.449
		c-0.099,0.278-0.264,0.534-0.494,0.768c-0.23,0.234-0.51,0.422-0.842,0.563C108.043,351.57,107.668,351.641,107.25,351.641z"/>
	<path fill="#565554" d="M110.572,351.547v-5.868h1.066v5.868H110.572z"/>
	<path fill="#565554" d="M112.28,351.547l2.014-5.868h1.379l2.014,5.868h-1.159l-0.415-1.26h-2.257l-0.423,1.26H112.28z
		 M114.161,349.341h1.646l-0.972-2.922h0.298L114.161,349.341z"/>
	<path fill="#565554" d="M118.337,351.547v-5.868h0.831l3.213,4.348l-0.431,0.087v-4.434h1.066v5.868h-0.838l-3.166-4.379
		l0.392-0.087v4.466H118.337z"/>
	<path fill="#565554" d="M123.885,351.547v-0.985h0.337c0.251,0,0.451-0.072,0.6-0.217c0.149-0.145,0.223-0.337,0.223-0.579v-4.088
		h1.073v4.048c0,0.362-0.077,0.68-0.231,0.953c-0.154,0.273-0.374,0.486-0.658,0.638c-0.285,0.152-0.62,0.228-1.007,0.228H123.885z"
		/>
	<path fill="#565554" d="M129.471,351.641c-0.449,0-0.848-0.095-1.195-0.284c-0.347-0.189-0.62-0.449-0.819-0.78
		c-0.199-0.331-0.298-0.706-0.298-1.126v-3.773h1.065v3.718c0,0.241,0.054,0.459,0.161,0.654c0.107,0.194,0.255,0.345,0.443,0.453
		c0.188,0.107,0.402,0.161,0.642,0.161c0.245,0,0.461-0.054,0.647-0.161c0.185-0.108,0.332-0.259,0.439-0.453
		c0.107-0.194,0.161-0.412,0.161-0.654v-3.718h1.066v3.773c0,0.42-0.099,0.795-0.298,1.126c-0.199,0.331-0.472,0.591-0.819,0.78
		C130.319,351.547,129.921,351.641,129.471,351.641z"/>
	<path fill="#565554" d="M132.848,351.547v-5.868h2.171c0.397,0,0.748,0.072,1.054,0.217s0.545,0.354,0.717,0.63
		c0.172,0.276,0.259,0.611,0.259,1.004c0,0.404-0.095,0.748-0.286,1.032c-0.191,0.284-0.448,0.494-0.772,0.63l1.34,2.355h-1.207
		l-1.434-2.576l0.69,0.41h-1.465v2.166H132.848z M133.914,348.436h1.121c0.193,0,0.36-0.038,0.501-0.114
		c0.141-0.076,0.251-0.182,0.329-0.319c0.078-0.137,0.117-0.294,0.117-0.472c0-0.184-0.039-0.343-0.117-0.477
		c-0.078-0.134-0.188-0.239-0.329-0.315c-0.141-0.076-0.308-0.114-0.501-0.114h-1.121V348.436z"/>
</g>
</svg>
